<?xml version="1.0" encoding="utf-8"?>
<!-- Generator: Adobe Illustrator 24.0.1, SVG Export Plug-In . SVG Version: 6.00 Build 0)  -->
<svg version="1.1" id="Layer_1" xmlns="http://www.w3.org/2000/svg" xmlns:xlink="http://www.w3.org/1999/xlink" x="0px" y="0px"
	 viewBox="0 0 512 512" style="enable-background:new 0 0 512 512;" xml:space="preserve">
<g>
	<g>
		<path d="M378.4,243.9c-18.1,0-35.4,3.6-51.1,10.2l4.8-43.6h18.4c9.2,0,16.7-7.5,16.7-16.7c0-9.2-7.5-16.7-16.7-16.7h-21.4
			l-6.8-20.3C306.6,109,262,76.9,211.6,76.9h-11.3V49.1c0-9.2,7.5-16.7,16.7-16.7h66.8c9.2,0,16.7-7.5,16.7-16.7S293-1,283.8-1H217
			C189.4-1,167,21.5,167,49.1v27.8h-11.3c-50.4,0-94.9,32.1-110.9,79.9l-6.8,20.3H16.7c-9.2,0-16.7,7.5-16.7,16.7
			c0,9.2,7.5,16.7,16.7,16.7h18.4c1.4,12.3,30.1,270.6,31.7,285.7c0.9,8.5,8.1,14.9,16.6,14.9h200.3c8.5,0,15.7-6.4,16.6-14.9
			l1.1-9.6c21.8,15.4,48.3,24.5,77,24.5c73.6,0,133.6-59.9,133.6-133.6S452.1,243.9,378.4,243.9z M76.5,167.4
			c11.4-34.1,43.2-57.1,79.2-57.1h55.9c36,0,67.8,22.9,79.2,57.1l3.2,9.7H73.3L76.5,167.4z M68.7,210.5h229.8l-7.3,65.9
			c-0.4,0.3-0.7,0.6-1.1,0.9h-214L68.7,210.5z M79.9,310.7h182.9c-11.4,19.7-17.9,42.5-17.9,66.8H87.3L79.9,310.7z M268.9,477.6
			H98.4L91,410.8h158.1c4.4,16.9,12,32.5,22.1,46.1L268.9,477.6z M378.4,477.6c-55.2,0-100.2-44.9-100.2-100.2
			s44.9-100.2,100.2-100.2s100.2,44.9,100.2,100.2S433.7,477.6,378.4,477.6z"/>
	</g>
</g>
<g>
	<g>
		<circle cx="384" cy="327.3" r="16.7"/>
	</g>
</g>
<g>
	<g>
		<circle cx="328.3" cy="371.9" r="16.7"/>
	</g>
</g>
<g>
	<g>
		<circle cx="372.9" cy="427.5" r="16.7"/>
	</g>
</g>
<g>
	<g>
		<circle cx="428.5" cy="383" r="16.7"/>
	</g>
</g>
</svg>
