<?xml version="1.0" encoding="utf-8"?>
<!-- Generator: Adobe Illustrator 24.0.1, SVG Export Plug-In . SVG Version: 6.00 Build 0)  -->
<svg version="1.1" id="Capa_1" xmlns="http://www.w3.org/2000/svg" xmlns:xlink="http://www.w3.org/1999/xlink" x="0px" y="0px"
	 viewBox="0 0 1000 695" style="enable-background:new 0 0 1000 695;" xml:space="preserve">
<g>
	<g>
		<path d="M117.1,573c5.4,6.4,8.1,13.6,8.1,21.5c-0.2,9.1-3.3,16.8-9.4,23c-6.1,6.2-13.5,9.3-22.2,9.3H57.6
			c-6.4,0-10.2-1.7-11.3-5.2c-0.5-1.6-0.8-3.9-0.8-7.1v-76.1c0-2.2,0.1-3.8,0.2-4.8c0.1-1,0.6-2.2,1.3-3.6c1.3-2.5,4.8-3.7,10.7-3.7
			h34.6c8.4,0,15.5,2.9,21.1,8.8c5.9,5.9,8.9,13.1,8.9,21.4C122.3,562.4,120.6,568,117.1,573z M100.9,593.2c0-2.2-0.3-3.9-0.8-5.2
			c-0.5-1.3-1.4-2.2-2.5-2.7c-1.8-0.7-4.4-1.1-7.7-1.1s-5.8-0.6-7.4-1.9c-1.6-1.3-2.5-3.9-2.5-7.9c0-4,0.8-6.6,2.5-7.9
			c1.7-1.3,4.5-1.9,8.4-1.9c3.7,0,5.9-1,6.6-2.9c0.3-1,0.4-2.7,0.4-4.9c0-2.3-0.8-3.9-2.3-4.8c-1.5-0.9-3.8-1.4-6.8-1.4H69.8v52
			h22.5C98.1,602.5,100.9,599.4,100.9,593.2z"/>
		<path d="M166.2,626.7c-9.2,0-16.9-3.5-23-10.5c-6.1-7-9.1-15.5-9.1-25.6v-24c0-2.2,0.1-3.8,0.2-4.8c0.1-1,0.5-2.2,1.2-3.6
			c1.3-2.5,4.8-3.7,10.7-3.7c6.4,0,10.2,1.7,11.3,5.2c0.5,1.5,0.8,3.8,0.8,7v24c0,3.8,1.1,6.7,3.2,8.8c2.1,2.1,5,3.2,8.6,3.2
			c3.6,0,6.5-1.1,8.8-3.3c2.2-2.2,3.4-5.1,3.4-8.6v-24.3c0-2.1,0.1-3.7,0.2-4.7c0.1-1.1,0.6-2.3,1.3-3.6c1.2-2.4,4.7-3.6,10.6-3.6
			c5.8,0,9.3,1.2,10.6,3.7c0.6,1.4,1,2.6,1.2,3.6c0.1,1.1,0.2,2.6,0.2,4.7v48.6c0,2-0.1,3.5-0.2,4.6c-0.1,1.1-0.6,2.2-1.3,3.5
			c-1.4,2.4-4.9,3.6-10.6,3.6c-5.6,0-9-1.1-10.3-3.3c-0.9-1.6-1.4-3.4-1.4-5.6c-0.4,0.6-1.2,1.6-2.5,2.7c-1.3,1.2-2.5,2.2-3.7,3
			C173.3,625.7,169.9,626.7,166.2,626.7z"/>
		<path d="M266.4,555.4c1.7,0.5,3.2,1.5,4.3,2.8c1.1,1.3,1.7,3.5,1.7,6.4c0,2.9-0.9,6.1-2.6,9.6c-1.7,3.5-4.3,5.2-7.5,5.2
			c-1.6,0-3.2-0.4-4.7-1.1c-1.5-0.7-3.5-1.1-6-1.1s-4.8,0.9-6.9,2.6c-2.2,1.7-3.2,3.8-3.2,6.3V615c0,2.1-0.1,3.7-0.2,4.7
			c-0.1,1.1-0.6,2.3-1.3,3.6c-1.4,2.4-4.9,3.6-10.7,3.6c-4.4,0-7.5-0.8-9.5-2.3c-1.5-1.3-2.3-3.2-2.5-5.9c0-0.9,0-2.2,0-4v-48.2
			c0-2.1,0.1-3.7,0.2-4.7c0.1-1.1,0.5-2.2,1.2-3.5c1.3-2.5,4.8-3.7,10.7-3.7c5.5,0,8.9,1.1,10.3,3.2c1,1.5,1.5,3,1.5,4.5
			c0.5-0.6,1.1-1.4,2-2.3c0.9-0.9,2.7-2.1,5.6-3.7c2.8-1.6,5.3-2.3,7.5-2.3c2.1,0,4,0.1,5.4,0.3
			C263.1,554.5,264.7,554.9,266.4,555.4z"/>
		<path d="M321.7,617.9c-3.5,4.6-9,6.9-16.6,6.9c-7.6,0-14.7-3.5-21.3-10.5c-6.6-7-9.9-15.2-9.9-24.5s3.3-17.5,10-24.6
			c6.7-7,14-10.6,22-10.6c3.1,0,5.9,0.6,8.5,1.7c2.6,1.1,4.3,2.2,5.3,3.2c1,1,1.7,1.9,2.3,2.7c0.3-2.6,1.2-4.5,2.8-5.8
			c1.6-1.3,4.2-2,7.8-2s6.2,0.3,7.8,0.8s2.8,1.5,3.5,2.8c0.7,1.3,1.1,2.5,1.2,3.5c0.1,1,0.2,2.6,0.2,4.7V623c0,10.5-3.7,19-11,25.5
			c-7.3,6.4-15.6,9.7-24.7,9.7c-7,0-13.6-1.7-19.9-5.1c-6.3-3.4-9.5-6.4-9.5-9.2c0-3.6,1.4-6.7,4.1-9.5c1.7-1.9,3.1-3.2,4-4
			c1-0.7,2.1-1.1,3.4-1.1c1.3,0,2.6,0.5,4,1.6c4.4,3.4,9.1,5.1,14.3,5.1c3.5,0,6.3-1.4,8.5-4.1s3.3-6,3.3-9.9V617.9z M297.3,589.8
			c0,3,1.2,5.6,3.5,8c2.3,2.4,5.2,3.6,8.5,3.6c3.3,0,6.1-1.2,8.3-3.6c2.2-2.4,3.3-5.1,3.3-8c0-2.9-1.1-5.6-3.2-8.1
			c-2.1-2.5-4.9-3.8-8.5-3.8s-6.4,1.2-8.6,3.7S297.3,586.8,297.3,589.8z"/>
		<path d="M425.8,582.1c0,5.6-1.4,9.8-4.2,12.5c-2.8,2.7-5.9,4-9.3,4h-32.5c0,2.6,1.5,4.7,4.5,6.4c3,1.7,6,2.6,9.1,2.6
			c5.3,0,9.5-0.5,12.5-1.6l1.5-0.5c2.2-1,4-1.5,5.5-1.5c2.9,0,5.4,2.1,7.5,6.2c1.2,2.5,1.8,4.6,1.8,6.3c0,8.1-9.7,12.2-29.2,12.2
			c-6.8,0-12.8-1.2-18-3.5c-5.3-2.3-9.4-5.4-12.3-9.3c-5.8-7.4-8.6-15.7-8.6-24.8c0-11.5,3.7-20.7,11.2-27.6
			c7.5-6.9,16.8-10.4,27.9-10.4c12.7,0,22,4.5,28,13.4C424.3,571.3,425.8,576.5,425.8,582.1z M396.9,586.2c3.5,0,5.2-1.5,5.2-4.4
			c0-2.1-0.8-3.8-2.4-5.1c-1.6-1.3-3.9-1.9-6.9-1.9c-3,0-5.9,1.2-8.9,3.6c-2.9,2.4-4.4,5-4.4,7.8H396.9z"/>
		<path d="M483.9,555.4c1.7,0.5,3.2,1.5,4.3,2.8c1.1,1.3,1.7,3.5,1.7,6.4c0,2.9-0.9,6.1-2.6,9.6c-1.7,3.5-4.3,5.2-7.5,5.2
			c-1.6,0-3.2-0.4-4.7-1.1c-1.5-0.7-3.5-1.1-6-1.1s-4.8,0.9-6.9,2.6c-2.2,1.7-3.2,3.8-3.2,6.3V615c0,2.1-0.1,3.7-0.2,4.7
			c-0.1,1.1-0.6,2.3-1.3,3.6c-1.4,2.4-4.9,3.6-10.7,3.6c-4.4,0-7.5-0.8-9.5-2.3c-1.5-1.3-2.3-3.2-2.5-5.9c0-0.9,0-2.2,0-4v-48.2
			c0-2.1,0.1-3.7,0.2-4.7c0.1-1.1,0.5-2.2,1.2-3.5c1.3-2.5,4.8-3.7,10.7-3.7c5.5,0,8.9,1.1,10.3,3.2c1,1.5,1.5,3,1.5,4.5
			c0.5-0.6,1.1-1.4,2-2.3c0.9-0.9,2.7-2.1,5.6-3.7c2.8-1.6,5.3-2.3,7.5-2.3c2.1,0,4,0.1,5.4,0.3
			C480.5,554.5,482.1,554.9,483.9,555.4z"/>
		<path d="M624.5,599.6c4.2,2.8,7.2,4.9,9.1,6.2c3.3,2.5,4.9,4.8,4.9,7.1c0,2.2-1.4,5.4-4.1,9.4c-2.7,4-5.5,6-8.4,6
			c-1.7,0-4.4-1.2-8-3.7c-0.5-0.3-1.7-1.1-3.8-2.6c-2.1-1.5-3.8-2.6-4.9-3.3c-8.5,6.6-18.1,9.9-28.7,9.9c-14.2,0-26.1-5-35.9-15.1
			c-9.7-10.1-14.6-22-14.6-35.9c0-7.6,1.4-14.7,4.1-21.3c2.7-6.6,6.4-12.2,11-16.7c4.6-4.5,9.8-8,15.8-10.6
			c5.9-2.6,12.1-3.8,18.4-3.8c13.5,0,25.3,4.9,35.3,14.7c10,9.8,15,22.2,15,37.2C629.6,584.6,627.9,592.1,624.5,599.6z M554.4,576.9
			c0,8.1,2.6,14.8,7.9,19.8c5.3,5.1,11.1,7.6,17.6,7.6c6.5,0,12.3-2.5,17.6-7.4s7.8-11.6,7.8-19.9c0-8.3-2.6-15-7.9-20
			c-5.3-5-11.1-7.5-17.6-7.5c-6.5,0-12.3,2.5-17.6,7.6C557,562.1,554.4,568.7,554.4,576.9z"/>
		<path d="M674,626.7c-9.2,0-16.9-3.5-23-10.5c-6.1-7-9.1-15.5-9.1-25.6v-24c0-2.2,0.1-3.8,0.2-4.8c0.1-1,0.5-2.2,1.2-3.6
			c1.3-2.5,4.8-3.7,10.7-3.7c6.4,0,10.2,1.7,11.3,5.2c0.5,1.5,0.8,3.8,0.8,7v24c0,3.8,1.1,6.7,3.2,8.8c2.1,2.1,5,3.2,8.6,3.2
			c3.6,0,6.5-1.1,8.8-3.3c2.2-2.2,3.4-5.1,3.4-8.6v-24.3c0-2.1,0.1-3.7,0.2-4.7c0.1-1.1,0.6-2.3,1.3-3.6c1.2-2.4,4.7-3.6,10.6-3.6
			c5.8,0,9.3,1.2,10.6,3.7c0.6,1.4,1,2.6,1.2,3.6c0.1,1.1,0.2,2.6,0.2,4.7v48.6c0,2-0.1,3.5-0.2,4.6c-0.1,1.1-0.6,2.2-1.3,3.5
			c-1.4,2.4-4.9,3.6-10.6,3.6c-5.6,0-9-1.1-10.3-3.3c-0.9-1.6-1.4-3.4-1.4-5.6c-0.4,0.6-1.2,1.6-2.5,2.7c-1.3,1.2-2.5,2.2-3.7,3
			C681.1,625.7,677.7,626.7,674,626.7z"/>
		<path d="M794.8,582.1c0,5.6-1.4,9.8-4.2,12.5c-2.8,2.7-5.9,4-9.3,4h-32.5c0,2.6,1.5,4.7,4.5,6.4c3,1.7,6,2.6,9.1,2.6
			c5.3,0,9.5-0.5,12.5-1.6l1.5-0.5c2.2-1,4-1.5,5.5-1.5c2.9,0,5.4,2.1,7.5,6.2c1.2,2.5,1.8,4.6,1.8,6.3c0,8.1-9.7,12.2-29.2,12.2
			c-6.8,0-12.8-1.2-18-3.5c-5.3-2.3-9.4-5.4-12.3-9.3c-5.8-7.4-8.6-15.7-8.6-24.8c0-11.5,3.7-20.7,11.2-27.6
			c7.5-6.9,16.8-10.4,27.9-10.4c12.7,0,22,4.5,28,13.4C793.2,571.3,794.8,576.5,794.8,582.1z M765.8,586.2c3.5,0,5.2-1.5,5.2-4.4
			c0-2.1-0.8-3.8-2.4-5.1c-1.6-1.3-3.9-1.9-6.9-1.9c-3,0-5.9,1.2-8.8,3.6c-2.9,2.4-4.4,5-4.4,7.8H765.8z"/>
		<path d="M873.4,582.1c0,5.6-1.4,9.8-4.2,12.5c-2.8,2.7-5.9,4-9.3,4h-32.5c0,2.6,1.5,4.7,4.5,6.4c3,1.7,6,2.6,9.1,2.6
			c5.3,0,9.5-0.5,12.5-1.6l1.5-0.5c2.2-1,4-1.5,5.5-1.5c2.9,0,5.4,2.1,7.5,6.2c1.2,2.5,1.8,4.6,1.8,6.3c0,8.1-9.7,12.2-29.2,12.2
			c-6.8,0-12.8-1.2-18-3.5c-5.3-2.3-9.4-5.4-12.3-9.3c-5.8-7.4-8.6-15.7-8.6-24.8c0-11.5,3.7-20.7,11.2-27.6
			c7.5-6.9,16.8-10.4,27.9-10.4c12.7,0,22,4.5,28,13.4C871.8,571.3,873.4,576.5,873.4,582.1z M844.5,586.2c3.5,0,5.2-1.5,5.2-4.4
			c0-2.1-0.8-3.8-2.4-5.1c-1.6-1.3-3.9-1.9-6.9-1.9c-3,0-5.9,1.2-8.8,3.6c-2.9,2.4-4.4,5-4.4,7.8H844.5z"/>
		<path d="M922.5,554.6c9.1,0,16.8,3.5,22.8,10.5c6.1,7,9.1,15.5,9.1,25.6v24.1c0,2.1-0.1,3.7-0.2,4.7c-0.1,1.1-0.5,2.2-1.2,3.5
			c-1.3,2.5-4.8,3.7-10.7,3.7c-6.5,0-10.2-1.7-11.3-5.1c-0.5-1.6-0.8-3.9-0.8-7v-24.1c0-3.7-1.1-6.7-3.2-8.8c-2.2-2.1-5-3.2-8.6-3.2
			c-3.6,0-6.5,1.1-8.8,3.3c-2.2,2.2-3.4,5.1-3.4,8.6v24.3c0,2.1-0.1,3.7-0.2,4.7c-0.1,1.1-0.6,2.2-1.3,3.5
			c-1.2,2.5-4.7,3.7-10.6,3.7c-5.8,0-9.3-1.2-10.6-3.7c-0.6-1.4-1-2.6-1.2-3.6c-0.1-1.1-0.2-2.6-0.2-4.7v-48.6c0-2,0.1-3.5,0.2-4.6
			c0.1-1.1,0.6-2.2,1.3-3.5c1.3-2.3,4.8-3.4,10.6-3.4c5.6,0,9,1.1,10.3,3.2c0.9,1.6,1.4,3.4,1.4,5.6c0.4-0.6,1.2-1.6,2.5-2.7
			c1.3-1.2,2.5-2.1,3.7-2.9C915.3,555.7,918.8,554.6,922.5,554.6z"/>
	</g>
	<g>
		<path d="M427.3,202.4c-7.8,0-14.1,6.3-14.1,14.1v29.1c0,7.8,6.3,14.1,14.1,14.1c7.8,0,14.1-6.3,14.1-14.1v-29.1
			C441.5,208.7,435.1,202.4,427.3,202.4z"/>
		<path d="M572.7,202.4c-7.8,0-14.1,6.3-14.1,14.1v29.1c0,7.8,6.3,14.1,14.1,14.1c7.8,0,14.1-6.3,14.1-14.1v-29.1
			C586.8,208.7,580.5,202.4,572.7,202.4z"/>
		<path d="M500,187.8c-7.8,0-14.1,6.3-14.1,14.1V231c0,7.8,6.3,14.1,14.1,14.1c7.8,0,14.1-6.3,14.1-14.1V202
			C514.1,194.2,507.8,187.8,500,187.8z"/>
		<path d="M328.5,303.3h342.9c4.1,0,8.1-1.8,10.7-4.9c2.7-3.1,3.9-7.3,3.2-11.4c-14.1-89.6-93.9-157.2-185.4-157.2
			s-171.3,67.6-185.4,157.2c-0.6,4.1,0.5,8.2,3.2,11.4C320.5,301.5,324.4,303.3,328.5,303.3z M500,157.9
			c72.1,0,135.6,49.3,154,117.1H346C364.4,207.2,427.9,157.9,500,157.9z"/>
		<path d="M317.8,330l21.8,14.5c17.7,11.8,41.5,11.8,59.3,0c8.4-5.6,19.6-5.6,27.9,0c17.7,11.8,41.5,11.8,59.3,0
			c8.4-5.6,19.6-5.6,27.9,0c8.9,5.9,19.2,8.9,29.6,8.9c10.4,0,20.8-3,29.6-8.9c8.4-5.6,19.6-5.6,27.9,0c17.7,11.8,41.6,11.8,59.3,0
			l21.8-14.5c6.5-4.3,8.2-13.1,3.9-19.6c-4.3-6.5-13.1-8.3-19.6-3.9L644.8,321c-8.4,5.6-19.6,5.6-27.9,0
			c-17.7-11.8-41.5-11.8-59.3,0c-8.4,5.6-19.6,5.6-27.9,0c-17.7-11.8-41.5-11.8-59.3,0c-8.4,5.6-19.6,5.6-27.9,0
			c-17.7-11.8-41.5-11.8-59.2,0c-8.4,5.6-19.6,5.6-27.9,0l-21.8-14.5c-6.5-4.4-15.2-2.6-19.6,3.9C309.5,316.9,311.3,325.6,317.8,330
			z"/>
		<path d="M659.9,362.2H340.1c-23.8,0-43.2,19.4-43.2,43.2c0,18.9,12.2,34.9,29.1,40.8v8.6c0,28.1,23.8,51.9,51.9,51.9h244.1
			c29.1,0,51.9-22.8,51.9-51.9v-8.6c16.9-5.9,29.1-21.9,29.1-40.8C703,381.6,683.7,362.2,659.9,362.2z M645.7,454.8
			c0,13.3-10.4,23.7-23.7,23.7H377.9c-12.6,0-23.7-11.1-23.7-23.7v-6.2h291.5V454.8z M659.9,420.3H340.1c-8.2,0-14.9-6.7-14.9-14.9
			c0-8.2,6.7-14.9,14.9-14.9h319.7c8.2,0,14.9,6.7,14.9,14.9C674.8,413.6,668.1,420.3,659.9,420.3z"/>
		<path d="M436.2,106.5c0.8,2.8,2.8,5.1,5.4,6.3c1.3,0.6,2.7,0.9,4.1,0.9c1.4,0,2.8-0.3,4.1-0.9c0.4-0.2,44.5-19.9,82.4-2.8
			c2.7,1.2,5.8,1.2,8.5-0.1c2.7-1.3,4.6-3.7,5.3-6.6l15.6-63.8c0.9-3.7-0.4-7.7-3.4-10.1c-3-2.4-7.1-3-10.6-1.3l-28.2,13.1
			l-20.6-19.7c-2-1.9-4.8-2.9-7.6-2.8c-2.8,0.2-5.4,1.5-7.1,3.7l-18.5,22.9L430.7,30c-3.6-1.6-7.7-0.9-10.6,1.7
			c-2.9,2.6-4.1,6.6-3,10.3L436.2,106.5z M464.9,66.7c4.1,1.8,8.9,0.6,11.8-2.9l16.5-20.4l17.7,16.9c3,2.9,7.4,3.6,11.1,1.8
			l15.5-7.2l-8,32.6c-30.6-9.4-61.4-2.2-77.1,3l-10-33.6L464.9,66.7z"/>
	</g>
</g>
</svg>
