<?xml version="1.0" encoding="utf-8"?>
<!-- Generator: Adobe Illustrator 24.0.1, SVG Export Plug-In . SVG Version: 6.00 Build 0)  -->
<svg version="1.1" id="Icons" xmlns="http://www.w3.org/2000/svg" xmlns:xlink="http://www.w3.org/1999/xlink" x="0px" y="0px"
	 viewBox="0 0 32 32" style="enable-background:new 0 0 32 32;" xml:space="preserve">
<style type="text/css">
	.st0{fill:none;stroke:#000000;stroke-width:2;stroke-linecap:round;stroke-linejoin:round;stroke-miterlimit:10;}
</style>
<line class="st0" x1="11.2" y1="8.4" x2="11.2" y2="10.5"/>
<line class="st0" x1="21.5" y1="8.4" x2="21.5" y2="10.5"/>
<line class="st0" x1="16.4" y1="7.4" x2="16.4" y2="9.5"/>
<path class="st0" d="M28.5,13.6C27.6,7.7,22.5,3.3,16.4,3.3S5.2,7.7,4.2,13.6H28.5z"/>
<path class="st0" d="M4,15.6l1.5,1c0.9,0.6,2.2,0.6,3.1,0l0,0c0.9-0.6,2.2-0.6,3.1,0l0,0c0.9,0.6,2.2,0.6,3.1,0l0,0
	c0.9-0.6,2.2-0.6,3.1,0l0,0c0.9,0.6,2.2,0.6,3.1,0l0,0c0.9-0.6,2.2-0.6,3.1,0l0,0c0.9,0.6,2.2,0.6,3.1,0l1.5-1"/>
<path class="st0" d="M27.7,23.9H5.1C3.9,23.9,3,23,3,21.8l0,0c0-1.1,0.9-2.1,2.1-2.1h22.6c1.1,0,2.1,0.9,2.1,2.1l0,0
	C29.8,23,28.8,23.9,27.7,23.9z"/>
<path class="st0" d="M27.7,23.9v1.4c0,1.5-1.2,2.7-2.7,2.7H7.7c-1.4,0-2.7-1.2-2.7-2.7v-1.4"/>
</svg>
