<?xml version="1.0" encoding="utf-8"?>
<!-- Generator: Adobe Illustrator 24.0.1, SVG Export Plug-In . SVG Version: 6.00 Build 0)  -->
<svg version="1.1" id="Capa_1" xmlns="http://www.w3.org/2000/svg" xmlns:xlink="http://www.w3.org/1999/xlink" x="0px" y="0px"
	 viewBox="0 0 545 542" style="enable-background:new 0 0 545 542;" xml:space="preserve">
<g>
	<path d="M210.3,205.4c-7.8,0-14.1,6.3-14.1,14.1v29.1c0,7.8,6.3,14.1,14.1,14.1c7.8,0,14.1-6.3,14.1-14.1v-29.1
		C224.5,211.7,218.1,205.4,210.3,205.4z"/>
	<path d="M355.7,205.4c-7.8,0-14.1,6.3-14.1,14.1v29.1c0,7.8,6.3,14.1,14.1,14.1c7.8,0,14.1-6.3,14.1-14.1v-29.1
		C369.8,211.7,363.5,205.4,355.7,205.4z"/>
	<path d="M283,190.8c-7.8,0-14.1,6.3-14.1,14.1V234c0,7.8,6.3,14.1,14.1,14.1c7.8,0,14.1-6.3,14.1-14.1V205
		C297.1,197.2,290.8,190.8,283,190.8z"/>
	<path d="M111.5,306.3h342.9c4.1,0,8.1-1.8,10.7-4.9c2.7-3.1,3.9-7.3,3.2-11.4c-14.1-89.6-93.9-157.2-185.4-157.2
		S111.7,200.3,97.6,289.9c-0.6,4.1,0.5,8.2,3.2,11.4C103.5,304.5,107.4,306.3,111.5,306.3z M283,160.9c72.1,0,135.6,49.3,154,117.1
		H129C147.4,210.2,210.9,160.9,283,160.9z"/>
	<path d="M100.8,333l21.8,14.5c17.7,11.8,41.5,11.8,59.3,0c8.4-5.6,19.6-5.6,27.9,0c17.7,11.8,41.5,11.8,59.3,0
		c8.4-5.6,19.6-5.6,27.9,0c8.9,5.9,19.2,8.9,29.6,8.9c10.4,0,20.8-3,29.6-8.9c8.4-5.6,19.6-5.6,27.9,0c17.7,11.8,41.6,11.8,59.3,0
		l21.8-14.5c6.5-4.3,8.2-13.1,3.9-19.6c-4.3-6.5-13.1-8.3-19.6-3.9L427.8,324c-8.4,5.6-19.6,5.6-27.9,0c-17.7-11.8-41.5-11.8-59.3,0
		c-8.4,5.6-19.6,5.6-27.9,0c-17.7-11.8-41.5-11.8-59.3,0c-8.4,5.6-19.6,5.6-27.9,0c-17.7-11.8-41.5-11.8-59.2,0
		c-8.4,5.6-19.6,5.6-27.9,0l-21.8-14.5c-6.5-4.4-15.2-2.6-19.6,3.9C92.5,319.9,94.3,328.6,100.8,333z"/>
	<path d="M442.9,365.2H123.1c-23.8,0-43.2,19.4-43.2,43.2c0,18.9,12.2,34.9,29.1,40.8v8.6c0,28.1,23.8,51.9,51.9,51.9h244.1
		c29.1,0,51.9-22.8,51.9-51.9v-8.6c16.9-5.9,29.1-21.9,29.1-40.8C486,384.6,466.7,365.2,442.9,365.2z M428.7,457.8
		c0,13.3-10.4,23.7-23.7,23.7H160.9c-12.6,0-23.7-11.1-23.7-23.7v-6.2h291.5V457.8z M442.9,423.3H123.1c-8.2,0-14.9-6.7-14.9-14.9
		c0-8.2,6.7-14.9,14.9-14.9h319.7c8.2,0,14.9,6.7,14.9,14.9C457.8,416.6,451.1,423.3,442.9,423.3z"/>
	<path d="M219.2,109.5c0.8,2.8,2.8,5.1,5.4,6.3c1.3,0.6,2.7,0.9,4.1,0.9c1.4,0,2.8-0.3,4.1-0.9c0.4-0.2,44.5-19.9,82.4-2.8
		c2.7,1.2,5.8,1.2,8.5-0.1c2.7-1.3,4.6-3.7,5.3-6.6l15.6-63.8c0.9-3.7-0.4-7.7-3.4-10.1c-3-2.4-7.1-3-10.6-1.3l-28.2,13.1
		l-20.6-19.7c-2-1.9-4.8-2.9-7.6-2.8c-2.8,0.2-5.4,1.5-7.1,3.7l-18.5,22.9L213.7,33c-3.6-1.6-7.7-0.9-10.6,1.7
		c-2.9,2.6-4.1,6.6-3,10.3L219.2,109.5z M247.9,69.7c4.1,1.8,8.9,0.6,11.8-2.9l16.5-20.4l17.7,16.9c3,2.9,7.4,3.6,11.1,1.8l15.5-7.2
		l-8,32.6c-30.6-9.4-61.4-2.2-77.1,3l-10-33.6L247.9,69.7z"/>
</g>
</svg>
