<?xml version="1.0" encoding="iso-8859-1"?>
<!-- Generator: Adobe Illustrator 19.0.0, SVG Export Plug-In . SVG Version: 6.00 Build 0)  -->
<svg version="1.1" id="Layer_1" xmlns="http://www.w3.org/2000/svg" xmlns:xlink="http://www.w3.org/1999/xlink" x="0px" y="0px"
	 viewBox="0 0 512 512" style="enable-background:new 0 0 512 512;" xml:space="preserve">
<g>
	<g>
		<path d="M500.622,290.133c0-24.641-7.551-48.65-22.445-71.361c-13.545-20.656-32.536-39.303-56.443-55.423
			c-42.196-28.452-95.554-45.94-148.668-49.062V102.4h68.267V0h-102.4v114.286c-53.114,3.122-106.472,20.61-148.668,49.062
			c-23.908,16.12-42.898,34.767-56.443,55.423c-14.894,22.711-22.445,46.721-22.445,71.361V307.2h2.935
			c-1.894,5.342-2.935,11.084-2.935,17.067c0,13.104,4.954,25.068,13.079,34.133c-8.125,9.066-13.079,21.03-13.079,34.133
			c0,5.982,1.041,11.725,2.935,17.067h-2.935v51.2c0,28.232,22.968,51.2,51.2,51.2h386.844c28.233,0,51.2-22.968,51.2-51.2v-51.2
			h-2.935c1.894-5.342,2.935-11.084,2.935-17.067c0-13.104-4.953-25.068-13.079-34.133c8.126-9.066,13.079-21.03,13.079-34.133
			c0-5.982-1.041-11.725-2.935-17.067h2.935V290.133z M273.067,34.133H307.2v34.133h-34.133V34.133z M109.348,191.65
			c41.224-27.796,94.676-43.738,146.652-43.738s105.428,15.943,146.653,43.738c34.583,23.319,56.112,51.73,62.115,81.417H47.234
			C53.235,243.38,74.765,214.968,109.348,191.65z M466.489,460.8c0,9.411-7.655,17.067-17.067,17.067H62.578
			c-9.411,0-17.067-7.656-17.067-17.067v-17.067h17.067h386.844h17.067V460.8z M449.422,409.6H62.578
			c-9.411,0-17.067-7.656-17.067-17.067c0-9.411,7.656-17.067,17.067-17.067c19.721,0,33.461,2.617,48.006,5.387
			c15.462,2.945,31.45,5.99,54.394,5.99c23.314,0,37.183-3.263,49.418-6.143c11.442-2.692,22.247-5.235,41.599-5.235
			c19.354,0,30.161,2.543,41.605,5.236c12.237,2.879,26.107,6.142,49.422,6.142c22.944,0,38.932-3.046,54.394-5.99
			c14.545-2.771,28.283-5.387,48.006-5.387c9.412,0,17.067,7.656,17.067,17.067C466.489,401.944,458.834,409.6,449.422,409.6z
			 M449.422,341.333c-22.944,0-38.932,3.046-54.394,5.99c-14.545,2.771-28.283,5.387-48.006,5.387
			c-19.354,0-30.161-2.543-41.604-5.235c-12.238-2.88-26.107-6.143-49.423-6.143c-23.314,0-37.183,3.263-49.418,6.143
			c-11.441,2.692-22.247,5.235-41.599,5.235c-19.722,0-33.461-2.617-48.007-5.387c-15.461-2.945-31.449-5.99-54.393-5.99
			c-9.411,0-17.067-7.656-17.067-17.067c0-9.411,7.656-17.067,17.067-17.067h386.844c9.412,0,17.067,7.656,17.067,17.067
			C466.489,333.677,458.834,341.333,449.422,341.333z"/>
	</g>
</g>
<g>
	<g>
		
			<rect x="160.664" y="197.556" transform="matrix(0.7071 -0.7071 0.7071 0.7071 -99.7052 188.5363)" width="34.133" height="34.133"/>
	</g>
</g>
<g>
	<g>
		
			<rect x="317.203" y="197.56" transform="matrix(0.7071 -0.7071 0.7071 0.7071 -53.8584 299.2263)" width="34.133" height="34.133"/>
	</g>
</g>
<g>
	<g>
		
			<rect x="240.317" y="172.044" transform="matrix(0.7071 -0.7071 0.7071 0.7071 -58.3353 237.3864)" width="34.133" height="34.133"/>
	</g>
</g>
<g>
</g>
<g>
</g>
<g>
</g>
<g>
</g>
<g>
</g>
<g>
</g>
<g>
</g>
<g>
</g>
<g>
</g>
<g>
</g>
<g>
</g>
<g>
</g>
<g>
</g>
<g>
</g>
<g>
</g>
</svg>
