<?xml version="1.0" encoding="utf-8"?>
<!-- Generator: Adobe Illustrator 24.0.1, SVG Export Plug-In . SVG Version: 6.00 Build 0)  -->
<svg version="1.1" id="Icons" xmlns="http://www.w3.org/2000/svg" xmlns:xlink="http://www.w3.org/1999/xlink" x="0px" y="0px"
	 viewBox="0 0 32 32" style="enable-background:new 0 0 32 32;" xml:space="preserve">
<style type="text/css">
	.st0{fill:none;stroke:#000000;stroke-width:2;stroke-linecap:round;stroke-linejoin:round;stroke-miterlimit:10;}
</style>
<line class="st0" x1="3" y1="30" x2="23" y2="30"/>
<path class="st0" d="M4,12v6.2C4,23,8,27,13,27s9-4,9-8.8V12H4z"/>
<path class="st0" d="M25,22L25,22c-1.7,0-3-1.3-3-3v-3c0-1.6,1.3-3,3-3l0,0c1.6,0,3,1.3,3,3v3C28,20.7,26.7,22,25,22z"/>
<path class="st0" d="M13,3L13,3c-1.2,1.8-1.2,4.2,0,6l0,0"/>
<path class="st0" d="M9,3L9,3C7.8,4.8,7.8,7.2,9,9l0,0"/>
<path class="st0" d="M17,3L17,3c-1.2,1.8-1.2,4.2,0,6l0,0"/>
</svg>
