<svg id="svg" version="1.1" xmlns="http://www.w3.org/2000/svg" xmlns:xlink="http://www.w3.org/1999/xlink" width="400" height="397.89842381786343" viewBox="0, 0, 400,397.89842381786343"><g id="svgg"><path id="path0" d="M283.980 132.232 C 282.235 132.853,282.208 133.065,283.447 136.566 C 284.883 140.623,284.866 141.064,283.225 142.505 C 282.482 143.158,281.570 144.450,281.199 145.377 C 280.264 147.714,280.551 147.649,271.193 147.656 C 262.038 147.662,262.113 147.644,261.643 149.992 C 261.420 151.108,261.662 151.579,263.766 154.133 C 265.072 155.718,268.961 160.507,272.407 164.776 C 275.854 169.045,279.093 173.048,279.606 173.673 L 280.537 174.808 281.960 173.673 C 283.826 172.184,283.852 172.276,280.398 168.172 C 276.688 163.765,276.639 163.980,281.350 163.980 C 285.661 163.980,285.770 164.042,285.773 166.500 C 285.777 170.181,290.460 174.254,294.908 174.444 C 296.806 174.525,296.866 174.566,297.354 176.119 C 297.630 176.995,297.981 177.891,298.135 178.109 C 298.289 178.328,298.540 179.087,298.691 179.796 C 299.044 181.448,299.256 181.555,301.072 180.997 C 303.005 180.404,303.147 179.939,302.167 177.408 C 300.777 173.820,300.774 173.400,302.126 172.106 C 303.988 170.325,304.943 168.515,305.220 166.246 L 305.473 164.179 318.109 164.074 C 325.060 164.016,330.746 164.117,330.746 164.297 C 330.746 164.478,330.433 164.975,330.050 165.401 C 329.667 165.827,327.120 168.950,324.390 172.341 C 321.660 175.733,319.242 178.711,319.017 178.961 C 318.791 179.210,317.914 180.304,317.066 181.393 C 313.695 185.725,307.536 187.643,300.588 186.524 C 295.105 185.642,293.870 184.852,289.468 179.413 C 287.824 177.383,286.414 175.652,286.335 175.566 C 286.102 175.316,283.383 177.514,283.383 177.953 C 283.383 178.172,286.483 182.148,290.272 186.788 C 294.061 191.428,298.270 196.596,299.626 198.273 L 302.090 201.322 302.090 215.417 L 302.090 229.513 301.194 230.353 C 293.896 237.202,279.591 235.786,276.211 227.881 C 274.411 223.673,274.512 223.531,279.602 223.093 C 291.507 222.069,298.150 214.098,294.280 205.482 C 292.178 200.804,283.427 200.089,277.076 204.077 C 264.211 212.153,263.884 232.663,276.529 238.279 C 283.990 241.593,293.025 239.978,299.244 234.220 C 300.539 233.021,301.709 232.040,301.844 232.040 C 301.979 232.040,302.090 235.884,302.090 240.583 L 302.090 249.127 300.807 250.633 C 296.159 256.092,286.958 262.056,280.753 263.633 L 278.806 264.128 278.688 266.132 L 278.570 268.135 288.340 268.206 L 298.109 268.277 298.109 266.278 L 298.109 264.279 294.527 264.279 C 290.155 264.279,290.146 264.196,294.237 261.614 C 296.038 260.477,298.945 258.194,300.697 256.542 C 304.506 252.947,303.523 252.946,307.400 256.550 C 309.186 258.210,312.121 260.494,313.923 261.625 C 318.014 264.193,318.004 264.279,313.632 264.279 L 310.050 264.279 310.050 266.269 L 310.050 268.259 319.822 268.259 L 329.594 268.259 329.474 266.193 L 329.353 264.128 327.406 263.633 C 322.054 262.273,313.685 257.173,308.964 252.394 L 306.070 249.465 306.070 225.301 L 306.070 201.138 307.392 199.574 C 308.119 198.714,311.371 194.697,314.618 190.647 C 317.864 186.597,320.986 182.731,321.554 182.056 C 322.122 181.381,323.517 179.679,324.653 178.275 C 326.800 175.621,337.998 161.871,343.502 155.129 C 346.868 151.006,347.006 150.667,346.059 148.836 L 345.452 147.662 322.819 147.662 L 300.186 147.662 299.516 145.970 C 298.173 142.579,294.861 140.166,290.966 139.740 L 288.797 139.502 287.384 135.751 C 285.855 131.694,285.763 131.598,283.980 132.232 M293.152 144.666 C 294.820 145.643,295.532 146.605,295.102 147.300 C 294.794 147.798,285.484 147.765,285.175 147.264 C 284.846 146.732,285.866 145.330,287.242 144.423 C 288.811 143.388,291.135 143.484,293.152 144.666 M281.175 153.755 C 282.271 156.070,283.253 157.135,285.373 158.305 C 287.648 159.560,286.893 159.795,280.228 159.910 L 273.887 160.019 271.006 156.527 C 269.421 154.606,267.859 152.721,267.533 152.338 C 266.973 151.679,267.296 151.642,273.558 151.642 L 280.176 151.642 281.175 153.755 M295.374 152.338 C 293.273 156.237,287.419 156.529,285.242 152.844 L 284.532 151.642 290.141 151.642 C 295.360 151.642,295.723 151.690,295.374 152.338 M337.783 155.721 L 334.476 159.801 319.499 159.905 L 304.523 160.010 303.281 158.465 C 302.598 157.615,301.337 156.583,300.477 156.171 C 298.745 155.342,298.645 155.025,299.482 153.022 L 300.059 151.642 320.574 151.642 L 341.090 151.642 337.783 155.721 M49.950 153.060 C 49.512 153.160,48.169 153.438,46.965 153.679 C 39.971 155.075,31.209 161.636,27.095 168.557 C 22.362 176.520,23.123 187.861,28.390 187.861 C 31.640 187.861,32.630 184.845,31.007 179.889 C 25.524 163.154,45.661 148.732,61.158 158.296 C 84.468 172.682,81.684 210.414,56.316 223.902 C 53.925 225.173,54.159 225.231,50.840 222.547 C 47.936 220.199,44.212 218.109,42.930 218.109 C 42.549 218.109,42.130 217.938,42.000 217.728 C 41.663 217.182,42.511 204.050,43.248 198.408 C 43.591 195.781,44.014 192.557,44.187 191.244 C 45.008 185.008,46.660 178.451,48.586 173.775 C 50.926 168.095,50.896 166.766,48.429 166.766 C 40.328 166.766,35.821 181.375,35.821 207.639 C 35.821 214.733,35.703 216.977,35.323 217.094 C 25.965 219.976,25.911 226.721,35.224 229.511 C 36.387 229.859,36.425 229.951,36.692 233.044 C 37.703 244.730,40.655 259.104,42.044 259.104 C 42.705 259.104,42.718 258.232,42.199 248.371 C 41.985 244.314,41.757 238.555,41.691 235.573 L 41.572 230.151 45.490 229.676 C 49.355 229.208,50.547 229.398,50.547 230.482 C 50.547 230.846,59.501 243.867,62.428 247.761 C 74.116 263.308,85.000 269.472,99.900 268.980 C 108.594 268.694,113.828 265.707,105.763 265.635 C 92.438 265.516,83.419 259.406,65.868 238.607 C 61.411 233.325,60.603 232.391,57.775 229.254 L 56.160 227.463 57.433 226.897 C 71.837 220.503,81.056 211.224,84.352 199.801 C 84.636 198.816,85.039 197.473,85.247 196.816 C 88.028 188.030,84.573 173.208,77.831 165.004 C 71.195 156.929,57.917 151.240,49.950 153.060 M298.926 160.014 C 300.659 161.249,301.416 162.965,301.203 165.180 C 300.575 171.715,291.463 172.358,289.845 165.981 C 288.504 160.699,294.424 156.809,298.926 160.014 M340.923 165.771 C 340.534 166.647,339.893 168.080,339.498 168.955 C 337.757 172.813,336.185 177.859,333.981 186.667 L 332.935 190.846 329.353 190.717 C 327.383 190.646,324.752 190.434,323.505 190.245 C 319.253 189.602,317.161 190.985,317.925 193.934 C 318.589 196.494,321.092 197.367,327.855 197.396 L 331.928 197.413 331.640 199.900 C 330.574 209.117,331.515 220.740,333.869 227.396 C 338.936 241.730,353.931 244.103,362.830 231.980 C 364.743 229.374,364.383 228.858,361.980 230.764 C 358.656 233.399,356.861 234.078,353.220 234.079 C 342.748 234.083,336.754 222.331,336.723 201.737 L 336.716 197.107 338.806 196.873 C 339.955 196.744,342.597 196.532,344.677 196.402 C 356.542 195.658,372.406 193.230,373.731 191.955 C 374.252 191.455,373.795 191.423,370.149 191.711 C 365.025 192.114,341.574 191.985,339.104 191.539 L 337.313 191.216 337.442 189.439 C 337.562 187.789,338.135 183.985,339.059 178.706 C 339.548 175.913,341.006 169.381,341.550 167.545 C 342.264 165.134,341.795 163.807,340.923 165.771 M315.869 170.121 L 314.828 171.486 316.320 172.723 L 317.811 173.960 318.905 172.745 C 320.294 171.203,320.282 170.603,318.844 169.579 C 317.307 168.485,317.086 168.525,315.869 170.121 M310.998 176.145 L 309.883 177.607 311.167 178.754 C 312.793 180.207,312.970 180.193,314.248 178.518 C 315.401 177.006,315.325 176.783,313.171 175.375 C 312.117 174.686,312.109 174.688,310.998 176.145 M251.144 191.233 C 246.719 191.974,246.195 192.648,249.607 193.212 C 258.712 194.720,261.156 215.680,253.906 230.090 C 249.769 238.313,246.833 237.682,244.195 228.003 C 242.353 221.246,242.405 221.456,240.989 214.925 C 240.633 213.284,240.144 211.045,239.902 209.950 C 238.346 202.918,235.642 201.433,230.512 204.793 C 226.409 207.482,224.634 209.907,228.044 208.167 C 230.865 206.728,231.689 207.157,232.244 210.356 C 234.340 222.428,239.177 236.108,242.328 238.874 C 247.145 243.104,255.309 234.891,260.224 220.868 C 261.290 217.827,261.773 216.052,263.089 210.348 C 266.267 196.567,261.818 189.446,251.144 191.233 M308.940 191.222 C 308.094 192.570,304.356 197.015,304.069 197.015 C 303.755 197.015,298.905 191.308,298.905 190.939 C 298.905 190.846,301.227 190.770,304.065 190.770 C 307.815 190.770,309.147 190.894,308.940 191.222 M126.701 199.776 L 125.442 200.543 125.463 207.834 C 125.493 218.101,123.135 228.443,120.237 230.756 C 111.525 237.709,98.022 235.381,95.321 226.460 C 94.430 223.516,94.455 223.491,98.570 223.143 C 108.559 222.298,115.010 217.261,115.021 210.297 C 115.041 197.605,96.059 198.837,89.441 211.957 C 79.528 231.610,99.221 248.448,117.214 235.704 C 124.484 230.556,130.693 219.947,131.940 210.547 C 132.336 207.565,132.348 207.559,134.246 209.463 C 135.167 210.388,137.291 212.120,138.965 213.312 C 143.196 216.323,144.396 218.437,144.447 222.970 C 144.561 233.000,135.056 238.283,128.781 231.678 C 126.616 229.399,125.683 230.043,126.961 232.934 C 132.222 244.826,149.155 241.043,151.500 227.451 C 152.828 219.758,149.734 214.702,141.132 210.510 C 136.480 208.243,134.145 206.152,132.383 202.675 C 130.698 199.350,128.902 198.433,126.701 199.776 M196.162 199.609 C 194.674 200.417,194.182 202.096,194.680 204.670 C 196.281 212.946,194.996 222.330,191.348 229.001 C 189.748 231.927,182.630 234.833,177.090 234.822 C 170.552 234.809,165.252 230.551,164.710 224.876 L 164.577 223.483 167.899 223.207 C 178.256 222.349,184.478 217.528,184.478 210.361 C 184.478 204.002,181.977 201.613,175.323 201.616 C 156.535 201.625,149.136 230.485,165.916 238.308 C 172.495 241.376,181.518 240.152,187.308 235.408 C 188.233 234.650,189.131 234.030,189.305 234.030 C 189.712 234.030,192.667 230.809,194.599 228.259 C 198.319 223.351,201.791 214.611,201.791 210.157 C 201.791 208.254,201.649 208.283,204.270 209.662 C 205.424 210.270,207.085 211.011,207.960 211.310 C 210.070 212.030,210.131 212.188,209.413 215.052 C 208.639 218.140,208.529 229.088,209.249 231.443 C 212.575 242.323,226.247 242.181,232.222 231.205 C 233.553 228.759,233.232 228.745,230.860 231.144 C 228.184 233.851,226.139 234.826,223.146 234.824 C 216.008 234.820,214.298 228.608,217.530 214.425 C 218.793 208.881,217.449 206.945,211.631 205.924 C 209.831 205.608,207.291 205.161,205.987 204.931 C 202.943 204.393,201.488 203.625,200.662 202.122 C 198.925 198.959,198.152 198.527,196.162 199.609 M105.294 205.609 C 106.220 206.048,106.773 206.678,107.099 207.665 C 109.278 214.268,104.149 220.912,96.517 221.372 L 94.527 221.493 94.636 218.706 C 94.992 209.566,100.185 203.184,105.294 205.609 M174.679 205.416 C 180.105 207.308,176.805 218.344,170.149 220.564 C 164.368 222.493,163.658 222.047,164.486 217.003 C 165.536 210.602,168.422 205.712,171.414 205.263 C 172.032 205.170,172.734 205.068,172.975 205.035 C 173.216 205.002,173.983 205.174,174.679 205.416 M285.326 205.416 C 288.710 206.596,288.815 213.183,285.513 217.213 C 282.506 220.883,274.627 223.013,274.627 220.156 C 274.627 213.644,278.386 206.166,282.084 205.321 C 283.765 204.936,283.966 204.942,285.326 205.416 M36.027 223.050 C 36.400 228.012,35.849 228.403,32.026 225.898 C 29.037 223.940,30.881 219.303,34.649 219.303 L 35.747 219.303 36.027 223.050 M45.434 223.745 C 48.132 226.546,48.231 227.287,45.968 227.760 C 42.492 228.486,41.608 228.116,41.467 225.872 C 41.141 220.707,42.042 220.224,45.434 223.745 M302.090 266.070 L 302.090 267.861 304.080 267.861 L 306.070 267.861 306.070 266.070 L 306.070 264.279 304.080 264.279 L 302.090 264.279 302.090 266.070 " stroke="none" fill="#000000" fill-rule="evenodd"></path></g></svg>